<?xml version="1.0" encoding="UTF-8" standalone="no"?> <svg width="101" height="101" viewBox="0 0 101 101" fill="none" xmlns="http://www.w3.org/2000/svg">
<path d="M49.92 5.2229C25.317 5.2229 5.30099 25.2389 5.30099 49.8419C5.30099 74.4459 25.317 94.4609 49.92 94.4609C74.524 94.4609 94.539 74.4449 94.539 49.8419C94.539 25.2389 74.523 5.2229 49.92 5.2229ZM49.92 91.4609C26.971 91.4609 8.30099 72.7909 8.30099 49.8419C8.30099 26.8929 26.971 8.2229 49.92 8.2229C72.869 8.2229 91.539 26.8929 91.539 49.8419C91.539 72.7909 72.869 91.4609 49.92 91.4609Z" fill="black" stroke="black" stroke-width="2.2"/>
<path d="M68.267 57.0898H31.577C30.748 57.0898 30.077 57.7618 30.077 58.5898C30.077 69.5328 38.978 78.4358 49.92 78.4358C60.863 78.4358 69.767 69.5338 69.767 58.5898C69.767 57.7618 69.095 57.0898 68.267 57.0898ZM49.92 75.4358C41.138 75.4358 33.905 68.6788 33.144 60.0898H66.7C65.938 68.6788 58.703 75.4358 49.92 75.4358Z" fill="black" stroke="black" stroke-width="2.2"/>
<path d="M39.074 36.4578C39.074 32.4128 35.782 29.1208 31.737 29.1208C27.692 29.1208 24.4 32.4128 24.4 36.4578C24.4 40.5028 27.692 43.7948 31.737 43.7948C35.783 43.7948 39.074 40.5028 39.074 36.4578ZM27.4 36.4578C27.4 34.0658 29.345 32.1208 31.737 32.1208C34.129 32.1208 36.074 34.0658 36.074 36.4578C36.074 38.8498 34.128 40.7948 31.737 40.7948C29.346 40.7948 27.4 38.8488 27.4 36.4578Z" fill="black" stroke="black" stroke-width="2.2"/>
<path d="M67.27 29.1208C63.224 29.1208 59.933 32.4128 59.933 36.4578C59.933 40.5028 63.224 43.7948 67.27 43.7948C71.316 43.7948 74.608 40.5028 74.608 36.4578C74.608 32.4128 71.315 29.1208 67.27 29.1208ZM67.27 40.7948C64.878 40.7948 62.933 38.8498 62.933 36.4578C62.933 34.0658 64.878 32.1208 67.27 32.1208C69.662 32.1208 71.608 34.0658 71.608 36.4578C71.608 38.8498 69.661 40.7948 67.27 40.7948Z" fill="black" stroke="black" stroke-width="2.2"/>
</svg>
